# xmcd
#
# Track frame offsets:
# 150
# 13866
# 26737
# 39299
# 50839
# 61681
# 71559
# 80812
# 95175
# 109045
# 120425
# 131620
# 143120
# 152138
#
# Disc length: 2196 seconds
#
#
# Revision: 0
# Processed by: cddbd v1.5.2PL0 Copyright (c) Steve Scherf et al.
# Submitted via: FreeRIP 2.951 
#
DISCID=c208920e
DTITLE=Various Artist - Duelling Banjos
DYEAR=1900
DGENRE=Country
TTITLE0=Bill Monroe and His Blue Grass Boys - Blue Moon Of Kentucky
TTITLE1=The BB Band - Duelling Banjos
TTITLE2=The Stanley Brothers - Little Maggie
TTITLE3=Bill Monroe and His Blue Grass Boys - Orange Blossom Special
TTITLE4=The Country Gentlemen - The Hills And Home
TTITLE5=Bill Clifton - Bury Me Beneath The Willow
TTITLE6=Connie and Joe - Home Is Where The Heart Is
TTITLE7=Bill Monroe and His Blue Grass Boys - Little Cabin Home On The Hill
TTITLE8=Jim Eanes - (Down Among The) Budded Roses
TTITLE9=Bill Harrell - I'll Never See You Anymore
TTITLE10=The Country Gentlemen - High Lonesome
TTITLE11=Stringbean - Stringbean And His Banjo
TTITLE12=Connie and Joe - Toil, Tears And Trouble
TTITLE13=Bill Monroe and His Blue Grass Boys - Kentucky Waltz
EXTD=
EXTT0=
EXTT1=
EXTT2=
EXTT3=
EXTT4=
EXTT5=
EXTT6=
EXTT7=
EXTT8=
EXTT9=
EXTT10=
EXTT11=
EXTT12=
EXTT13=
PLAYORDER=
